<svg id="Capa_1" enable-background="new 0 0 512 512" height="512" viewBox="0 0 512 512" width="512" xmlns="http://www.w3.org/2000/svg" xmlns:xlink="http://www.w3.org/1999/xlink"><linearGradient id="SVGID_1_" gradientUnits="userSpaceOnUse" x1="256" x2="256" y1="512" y2="0"><stop offset="0" stop-color="#5558ff"/><stop offset="1" stop-color="#00c0ff"/></linearGradient><g><g><path d="m256 0c-140.959 0-256 115.049-256 256 0 140.958 115.049 256 256 256 140.958 0 256-115.05 256-256 0-140.959-115.049-256-256-256zm0 482c-124.617 0-226-101.383-226-226s101.383-226 226-226 226 101.383 226 226-101.383 226-226 226zm0-422c-107.638 0-196 88.353-196 196 0 107.638 88.353 196 196 196 40.436 0 79.958-13.168 114.294-38.083 6.705-4.865 8.197-14.245 3.332-20.95-4.865-6.706-14.245-8.197-20.95-3.332-29.18 21.174-62.611 32.365-96.676 32.365-91.533 0-166-74.467-166-166s74.467-166 166-166 166 74.467 166 166v45c0 16.262-14.196 30-31 30-16.542 0-30-13.458-30-30v-45c0-57.897-47.103-105-105-105s-105 47.103-105 105 47.103 105 105 105c31.85 0 60.429-14.258 79.701-36.722 9.109 21.556 30.466 36.722 55.299 36.722 32.895 0 61-26.584 61-60v-45c0-107.638-88.353-196-196-196zm0 271c-41.355 0-75-33.645-75-75s33.645-75 75-75 75 33.645 75 75-33.645 75-75 75z" fill="url(#SVGID_1_)"/></g></g></svg>